<svg xmlns="http://www.w3.org/2000/svg" version="1.1" xmlns:xlink="http://www.w3.org/1999/xlink" xmlns:svgjs="http://svgjs.com/svgjs" width="1000" height="1000"><rect width="1000" height="1000" rx="200" ry="200" fill="#ffffff"></rect><g transform="matrix(3.076923076923077,0,0,3.076923076923077,99.74171243264124,101.44246238011578)"><svg xmlns="http://www.w3.org/2000/svg" version="1.1" xmlns:xlink="http://www.w3.org/1999/xlink" xmlns:svgjs="http://svgjs.com/svgjs" width="260" height="260"><svg width="260" height="260" viewBox="0 0 260 260" fill="none" xmlns="http://www.w3.org/2000/svg">
<path d="M208.677 0.610962C236.527 0.610962 259.01 22.6624 259.01 49.9766V71.2452C259.01 98.5596 236.527 120.611 208.677 120.611H2.5603V49.9766C2.5603 22.6624 25.0434 0.610962 52.8924 0.610962H208.677Z" fill="#023DFF"></path>
<path d="M208.677 256.268C236.526 256.268 259.009 234.217 259.009 206.902V185.633C259.009 158.319 236.526 136.268 208.677 136.268H2.56006V206.902C2.56006 234.217 25.0432 256.268 52.8921 256.268H208.677Z" fill="#00BB00"></path>
<path d="M207.246 0.626838C235.028 0.626838 257.551 22.7392 257.551 50.0162V71.2375C257.551 98.5146 235.028 120.627 207.246 120.627H1.23871L1.23871 50.0161C1.23871 22.7392 23.7607 0.62683 51.5429 0.626831L207.246 0.626838Z" fill="#023DFF"></path>
<path d="M207.247 258C235.029 258 257.552 235.888 257.552 208.61V187.389C257.552 160.112 235.029 138 207.247 138H1.23969L1.23969 208.61C1.23969 235.888 23.7617 258 51.5439 258H207.247Z" fill="#00BB00"></path>
</svg></svg></g></svg>